:FULLY-SPECIFIED
:FORCE-ALL-JOINTS-BE-3DOF
:DEGREES
68
root 6.96424 16.6817 -27.2198 -0.18353 3.51288 1.17473
lfemur -13.3265 7.8453 -20.8853
ltibia 35.7409 0 0
lfoot -28.6655 -4.16755 0
ltoes 35.2732 0 0
rfemur -58.9747 -11.9162 38.007
rtibia 63.6668 0 0
rfoot -6.35274 7.4307 0
rtoes -5.9061 0 0
lowerback 6.74425 0.147207 -6.90091
upperback 1.35922 -0.454195 0.58499
thorax -2.24373 -0.157001 5.05091
lowerneck -11.0987 -1.51573 0.735434
upperneck -0.592099 -2.14116 0.985763
head 1.69593 -1.02872 0.112177
lclavicle -5.53115e-14 -1.48525e-14 0
lhumerus -41.4268 -16.7316 94.8241
lradius 43.4667 0 0
lwrist 10.0045 0 0
lhand -1.14987 5.05504 0
lfingers 7.12502 0 0
lthumb 24.4478 33.0903 0
rclavicle -5.53115e-14 -1.48525e-14 0
rhumerus -44.5517 -15.6103 -72.1241
rradius 61.2813 0 0
rwrist -14.0031 0 0
rhand -26.5202 -24.5421 0
rfingers 7.12502 0 0
rthumb 0.0434018 -54.5066 0
69
root 6.97566 16.679 -27.2062 -0.331307 3.61651 1.23377
lfemur -13.2226 7.93197 -20.8905
ltibia 35.7489 0 0
lfoot -28.5107 -4.301 0
ltoes 35.2185 0 0
rfemur -59.5992 -12.1088 38.3043
rtibia 64.1157 0 0
rfoot -5.97468 7.7104 0
rtoes -6.34415 0 0
lowerback 6.8961 0.0919616 -6.93183
upperback 1.42138 -0.540126 0.546125
thorax -2.25142 -0.201039 5.03629
lowerneck -11.1186 -1.50373 0.715418
upperneck -0.579214 -2.12424 1.02321
head 1.70442 -1.01913 0.128085
lclavicle -5.44709e-14 -1.44075e-14 0
lhumerus -41.4178 -16.8292 94.7562
lradius 43.6033 0 0
lwrist 10.1217 0 0
lhand -0.986066 5.08405 0
lfingers 7.12502 0 0
lthumb 24.6046 33.0968 0
rclavicle -5.44709e-14 -1.44075e-14 0
rhumerus -44.5617 -15.7849 -71.9227
rradius 61.5935 0 0
rwrist -14.3759 0 0
rhand -26.5597 -24.5759 0
rfingers 7.12502 0 0
rthumb 0.00520619 -54.5403 0
70
root 6.98708 16.6763 -27.1927 -0.479083 3.72014 1.29281
lfemur -13.1187 8.01865 -20.8957
ltibia 35.7569 0 0
lfoot -28.3559 -4.43446 0
ltoes 35.1637 0 0
rfemur -60.2236 -12.3013 38.6016
rtibia 64.5647 0 0
rfoot -5.59661 7.9901 0
rtoes -6.7822 0 0
lowerback 7.04796 0.0367158 -6.96276
upperback 1.48354 -0.626058 0.50726
thorax -2.25912 -0.245077 5.02168
lowerneck -11.1385 -1.49174 0.695401
upperneck -0.566329 -2.10732 1.06065
head 1.7129 -1.00954 0.143994
lclavicle -5.36304e-14 -1.39624e-14 0
lhumerus -41.4089 -16.9267 94.6883
lradius 43.7399 0 0
lwrist 10.2389 0 0
lhand -0.822258 5.11307 0
lfingers 7.12502 0 0
lthumb 24.7615 33.1032 0
rclavicle -5.36304e-14 -1.39624e-14 0
rhumerus -44.5718 -15.9595 -71.7213
rradius 61.9056 0 0
rwrist -14.7487 0 0
rhand -26.5993 -24.6096 0
rfingers 7.12502 0 0
rthumb -0.0329894 -54.574 0
71
root 6.9985 16.6736 -27.1791 -0.62686 3.82377 1.35185
lfemur -13.0148 8.10533 -20.901
ltibia 35.7649 0 0
lfoot -28.201 -4.56791 0
ltoes 35.1089 0 0
rfemur -60.8481 -12.4938 38.8989
rtibia 65.0136 0 0
rfoot -5.21855 8.2698 0
rtoes -7.22025 0 0
lowerback 7.19981 -0.01853 -6.99368
upperback 1.5457 -0.71199 0.468395
thorax -2.26681 -0.289115 5.00707
lowerneck -11.1583 -1.47974 0.675385
upperneck -0.553444 -2.0904 1.0981
head 1.72138 -0.99995 0.159902
lclavicle -5.27898e-14 -1.35174e-14 0
lhumerus -41.3999 -17.0242 94.6204
lradius 43.8764 0 0
lwrist 10.3561 0 0
lhand -0.65845 5.14208 0
lfingers 7.12502 0 0
lthumb 24.9183 33.1097 0
rclavicle -5.27898e-14 -1.35174e-14 0
rhumerus -44.5819 -16.1341 -71.5199
rradius 62.2177 0 0
rwrist -15.1215 0 0
rhand -26.6388 -24.6433 0
rfingers 7.12502 0 0
rthumb -0.071185 -54.6077 0
72
root 7.00992 16.671 -27.1655 -0.774637 3.9274 1.41089
lfemur -12.9109 8.192 -20.9062
ltibia 35.773 0 0
lfoot -28.0462 -4.70137 0
ltoes 35.0541 0 0
rfemur -61.4726 -12.6863 39.1963
rtibia 65.4626 0 0
rfoot -4.84049 8.5495 0
rtoes -7.6583 0 0
lowerback 7.35166 -0.0737758 -7.0246
upperback 1.60787 -0.797922 0.42953
thorax -2.27451 -0.333153 4.99246
lowerneck -11.1782 -1.46775 0.655368
upperneck -0.540559 -2.07348 1.13554
head 1.72987 -0.990359 0.17581
lclavicle -5.19492e-14 -1.30724e-14 0
lhumerus -41.3909 -17.1218 94.5524
lradius 44.013 0 0
lwrist 10.4732 0 0
lhand -0.494642 5.1711 0
lfingers 7.12502 0 0
lthumb 25.0751 33.1161 0
rclavicle -5.19492e-14 -1.30724e-14 0
rhumerus -44.5919 -16.3086 -71.3185
rradius 62.5299 0 0
rwrist -15.4943 0 0
rhand -26.6783 -24.677 0
rfingers 7.12502 0 0
rthumb -0.109381 -54.6414 0
73
root 7.02134 16.6683 -27.152 -0.922413 4.03103 1.46993
lfemur -12.807 8.27868 -20.9114
ltibia 35.781 0 0
lfoot -27.8914 -4.83483 0
ltoes 34.9993 0 0
rfemur -62.097 -12.8788 39.4936
rtibia 65.9116 0 0
rfoot -4.46242 8.8292 0
rtoes -8.09635 0 0
lowerback 7.50352 -0.129022 -7.05553
upperback 1.67003 -0.883854 0.390665
thorax -2.28221 -0.377191 4.97785
lowerneck -11.1981 -1.45575 0.635351
upperneck -0.527674 -2.05656 1.17298
head 1.73835 -0.980767 0.191719
lclavicle -5.11086e-14 -1.26273e-14 0
lhumerus -41.382 -17.2193 94.4845
lradius 44.1496 0 0
lwrist 10.5904 0 0
lhand -0.330834 5.20012 0
lfingers 7.12502 0 0
lthumb 25.232 33.1225 0
rclavicle -5.11086e-14 -1.26273e-14 0
rhumerus -44.602 -16.4832 -71.1171
rradius 62.842 0 0
rwrist -15.8671 0 0
rhand -26.7179 -24.7107 0
rfingers 7.12502 0 0
rthumb -0.147576 -54.6751 0
74
root 7.03276 16.6656 -27.1384 -1.07019 4.13466 1.52897
lfemur -12.7031 8.36535 -20.9166
ltibia 35.789 0 0
lfoot -27.7366 -4.96828 0
ltoes 34.9446 0 0
rfemur -62.7215 -13.0714 39.7909
rtibia 66.3605 0 0
rfoot -4.08436 9.1089 0
rtoes -8.5344 0 0
lowerback 7.65537 -0.184267 -7.08645
upperback 1.73219 -0.969785 0.3518
thorax -2.2899 -0.421229 4.96323
lowerneck -11.2179 -1.44376 0.615335
upperneck -0.514789 -2.03965 1.21043
head 1.74684 -0.971176 0.207627
lclavicle -5.02681e-14 -1.21823e-14 0
lhumerus -41.373 -17.3169 94.4166
lradius 44.2862 0 0
lwrist 10.7076 0 0
lhand -0.167025 5.22913 0
lfingers 7.12502 0 0
lthumb 25.3888 33.129 0
rclavicle -5.02681e-14 -1.21823e-14 0
rhumerus -44.612 -16.6578 -70.9157
rradius 63.1542 0 0
rwrist -16.2399 0 0
rhand -26.7574 -24.7445 0
rfingers 7.12502 0 0
rthumb -0.185772 -54.7088 0
75
root 7.04418 16.663 -27.1248 -1.21797 4.23829 1.58801
lfemur -12.5993 8.45203 -20.9218
ltibia 35.797 0 0
lfoot -27.5818 -5.10174 0
ltoes 34.8898 0 0
rfemur -63.3459 -13.2639 40.0882
rtibia 66.8095 0 0
rfoot -3.70629 9.3886 0
rtoes -8.97244 0 0
lowerback 7.80722 -0.239513 -7.11737
upperback 1.79435 -1.05572 0.312936
thorax -2.2976 -0.465267 4.94862
lowerneck -11.2378 -1.43176 0.595318
upperneck -0.501903 -2.02273 1.24787
head 1.75532 -0.961584 0.223535
lclavicle -4.94275e-14 -1.17372e-14 0
lhumerus -41.364 -17.4144 94.3486
lradius 44.4228 0 0
lwrist 10.8248 0 0
lhand -0.00321716 5.25815 0
lfingers 7.12502 0 0
lthumb 25.5457 33.1354 0
rclavicle -4.94275e-14 -1.17372e-14 0
rhumerus -44.6221 -16.8324 -70.7143
rradius 63.4663 0 0
rwrist -16.6127 0 0
rhand -26.797 -24.7782 0
rfingers 7.12502 0 0
rthumb -0.223967 -54.7425 0
76
root 7.05561 16.6603 -27.1112 -1.36574 4.34192 1.64705
lfemur -12.4954 8.5387 -20.927
ltibia 35.805 0 0
lfoot -27.427 -5.2352 0
ltoes 34.835 0 0
rfemur -63.9704 -13.4564 40.3855
rtibia 67.2584 0 0
rfoot -3.32823 9.6683 0
rtoes -9.41049 0 0
lowerback 7.95908 -0.294759 -7.1483
upperback 1.85651 -1.14165 0.274071
thorax -2.30529 -0.509305 4.93401
lowerneck -11.2577 -1.41977 0.575301
upperneck -0.489018 -2.00581 1.28531
head 1.76381 -0.951993 0.239444
lclavicle -4.85869e-14 -1.12922e-14 0
lhumerus -41.3551 -17.512 94.2807
lradius 44.5594 0 0
lwrist 10.942 0 0
lhand 0.160591 5.28716 0
lfingers 7.12502 0 0
lthumb 25.7025 33.1419 0
rclavicle -4.85869e-14 -1.12922e-14 0
rhumerus -44.6321 -17.0069 -70.5129
rradius 63.7784 0 0
rwrist -16.9854 0 0
rhand -26.8365 -24.8119 0
rfingers 7.12502 0 0
rthumb -0.262163 -54.7762 0
